<svg width="100" height="32" viewBox="0 0 100 32" fill="none" xmlns="http://www.w3.org/2000/svg">
<path d="M14.5933 32C14.3717 32 14.1535 31.9357 13.9658 31.8072C13.6563 31.5991 13.4719 31.249 13.4719 30.8769V18.0511C13.4719 17.5927 13.751 17.18 14.1755 17.0092L27.6542 11.5883C28.0009 11.4479 28.3933 11.4902 28.7029 11.6999C29.0124 11.9097 29.1967 12.2581 29.1967 12.6319L29.168 25.456C29.168 25.9127 28.8889 26.3237 28.4644 26.4945L15.0144 31.9171C14.8791 31.9712 14.7371 31.9983 14.595 31.9983L14.5933 32ZM15.7164 18.8105V29.2143L26.9218 24.6966L26.9455 14.2945L15.7164 18.8105Z" fill="#181823"/>
<path d="M1.12139 20.4918C0.899819 20.4918 0.68163 20.4275 0.493885 20.299C0.184361 20.0909 0 19.7408 0 19.3687V6.5446C0 6.08623 0.279079 5.67353 0.703618 5.5027L14.1806 0.0818016C14.5273 -0.0585836 14.9197 -0.0162989 15.2293 0.193433C15.5388 0.403165 15.7231 0.751592 15.7231 1.12539L15.6944 13.9495C15.6944 14.4062 15.4153 14.8172 14.9908 14.988L1.54085 20.4106C1.40554 20.4647 1.26347 20.4918 1.12139 20.4918ZM2.24447 7.30234V17.7061L13.4499 13.1884L13.4736 2.78633L2.24447 7.30234Z" fill="#181823"/>
<path d="M7.85649 26.2459C7.63492 26.2459 7.41673 26.1816 7.22898 26.0531C6.91946 25.845 6.7351 25.4949 6.7351 25.1228V12.297C6.7351 11.8386 7.01418 11.4259 7.43872 11.2551L20.9174 5.83421C21.2641 5.69552 21.6565 5.73611 21.9661 5.94584C22.2756 6.15557 22.4599 6.504 22.4599 6.8778L22.4312 19.7019C22.4312 20.1586 22.1521 20.5696 21.7276 20.7404L8.27765 26.163C8.14233 26.2171 8.00026 26.2442 7.85818 26.2442L7.85649 26.2459ZM8.97957 13.0564V23.4602L20.185 18.9425L20.2087 8.54043L8.97957 13.0564Z" fill="url(#paint0_linear_43_26)"/>
<mask id="mask0_43_26" style="mask-type:luminance" maskUnits="userSpaceOnUse" x="19" y="12" width="6" height="6">
<path d="M23.1602 12.1347C21.3994 12.0247 18.8167 14.9271 19.752 16.7741C20.3339 17.9192 22.5986 18.2253 23.5543 17.4422C24.9344 16.309 24.9497 12.9803 23.1602 12.1347C24.9514 12.9803 21.3994 12.0247 23.1602 12.1347Z" fill="white"/>
</mask>
<g mask="url(#mask0_43_26)">
<path d="M7.85647 26.2459C7.6349 26.2459 7.41671 26.1816 7.22897 26.053C6.91945 25.845 6.73508 25.4949 6.73508 25.1228V12.297C6.73508 11.8386 7.01416 11.4259 7.4387 11.2551L20.9174 5.83418C21.2641 5.69548 21.6565 5.73608 21.966 5.94581C22.2756 6.15554 22.4599 6.50397 22.4599 6.87777L22.4312 19.7019C22.4312 20.1585 22.1521 20.5696 21.7276 20.7404L8.27763 26.163C8.14232 26.2171 8.00024 26.2442 7.85817 26.2442L7.85647 26.2459ZM8.97956 13.0564V23.4601L20.185 18.9424L20.2087 8.5404L8.97956 13.0564Z" fill="url(#paint1_linear_43_26)"/>
<path d="M14.5933 31.9999C14.3717 31.9999 14.1535 31.9356 13.9658 31.8071C13.6562 31.5991 13.4719 31.2489 13.4719 30.8768V18.051C13.4719 17.5927 13.751 17.18 14.1755 17.0091L27.6542 11.5882C28.0009 11.4479 28.3933 11.4901 28.7028 11.6999C29.0124 11.9096 29.1967 12.258 29.1967 12.6318L29.168 25.4559C29.168 25.9126 28.8889 26.3236 28.4643 26.4944L15.0144 31.917C14.8791 31.9712 14.737 31.9982 14.595 31.9982L14.5933 31.9999ZM15.7164 18.8105V29.2142L26.9218 24.6965L26.9455 14.2945L15.7164 18.8105Z" fill="#181823"/>
</g>
<mask id="mask1_43_26" style="mask-type:luminance" maskUnits="userSpaceOnUse" x="5" y="14" width="6" height="6">
<path d="M8.62608 14.599C6.84674 14.7732 5.50378 15.5005 5.58327 17.493C5.64416 18.9932 6.57104 19.6478 8.04086 19.4431C9.80329 19.1962 10.331 16.8384 10.3682 15.3128C10.375 14.9999 10.4392 13.618 8.62608 14.6007C10.4392 13.618 6.84674 14.7749 8.62608 14.6007V14.599Z" fill="white"/>
</mask>
<g mask="url(#mask1_43_26)">
<path d="M7.85653 26.2459C7.63496 26.2459 7.41677 26.1816 7.22902 26.053C6.9195 25.845 6.73514 25.4949 6.73514 25.1228V12.297C6.73514 11.8386 7.01422 11.4259 7.43876 11.2551L20.9174 5.83419C21.2642 5.69549 21.6566 5.73609 21.9661 5.94582C22.2756 6.15555 22.46 6.50398 22.46 6.87777L22.4312 19.7019C22.4312 20.1586 22.1521 20.5696 21.7276 20.7404L8.27768 26.163C8.14237 26.2171 8.0003 26.2442 7.85822 26.2442L7.85653 26.2459ZM8.97961 13.0564V23.4601L20.1851 18.9424L20.2087 8.54041L8.97961 13.0564Z" fill="url(#paint2_linear_43_26)"/>
<path d="M1.12141 20.4918C0.899842 20.4918 0.681653 20.4275 0.493908 20.2989C0.184384 20.0909 2.28882e-05 19.7408 2.28882e-05 19.3687V6.54457C2.28882e-05 6.08621 0.279102 5.67351 0.703641 5.50268L14.1806 0.0817787C14.5274 -0.0586065 14.9198 -0.0163218 15.2293 0.19341C15.5388 0.403143 15.7232 0.751569 15.7232 1.12537L15.6944 13.9495C15.6944 14.4062 15.4153 14.8172 14.9908 14.988L1.54088 20.4106C1.40557 20.4647 1.26349 20.4918 1.12141 20.4918ZM2.2445 7.30232V17.7061L13.4499 13.1884L13.4736 2.78631L2.2445 7.30232Z" fill="#181823"/>
</g>
<path d="M92.626 24.4141C92.126 24.4141 91.7822 24.0703 91.7822 23.5156V14C91.7822 13.4609 92.1182 13.1328 92.5947 13.1328C93.0713 13.1328 93.415 13.4609 93.415 14V14.6953H93.4463C93.9307 13.75 94.876 13.1484 96.0635 13.1484C98.1494 13.1484 99.5244 14.7891 99.5244 17.3906C99.5244 19.9922 98.1572 21.6406 96.0947 21.6406C94.915 21.6406 93.9775 21.0625 93.5088 20.1484H93.4697V23.5156C93.4697 24.0703 93.1182 24.4141 92.626 24.4141ZM95.6182 20.2109C96.9541 20.2109 97.79 19.1172 97.79 17.3906C97.79 15.6719 96.9541 14.5703 95.6182 14.5703C94.3291 14.5703 93.4619 15.6953 93.4619 17.3906C93.4619 19.1016 94.3213 20.2109 95.6182 20.2109Z" fill="#110C22"/>
<path d="M85.8916 21.6406C84.2822 21.6406 83.1494 20.6406 83.1494 19.1641C83.1494 17.7266 84.2588 16.8438 86.2041 16.7344L88.4619 16.6016V15.9688C88.4619 15.0547 87.8447 14.5078 86.8135 14.5078C86.001 14.5078 85.4619 14.7969 84.9932 15.5469C84.8213 15.7969 84.6025 15.9062 84.3057 15.9062C83.8838 15.9062 83.5791 15.625 83.5791 15.2031C83.5791 15.0312 83.626 14.8438 83.7275 14.6562C84.1572 13.7266 85.3994 13.1328 86.876 13.1328C88.8682 13.1328 90.1416 14.1875 90.1416 15.8359V20.7969C90.1416 21.3281 89.8057 21.6484 89.3291 21.6484C88.8604 21.6484 88.54 21.3438 88.5244 20.8438V20.1484H88.4854C88.0088 21.0625 86.9619 21.6406 85.8916 21.6406ZM86.3525 20.3047C87.5322 20.3047 88.4619 19.4922 88.4619 18.4219V17.7734L86.4307 17.8984C85.4229 17.9688 84.8525 18.4141 84.8525 19.1172C84.8525 19.8359 85.4541 20.3047 86.3525 20.3047Z" fill="#110C22"/>
<path d="M74.2197 21.6484C73.665 21.6484 73.3525 21.3906 73.1807 20.7969L71.3057 14.3359C71.2432 14.1484 71.2197 14 71.2197 13.8594C71.2197 13.4219 71.5479 13.1328 72.04 13.1328C72.4619 13.1328 72.7119 13.3594 72.8213 13.8359L74.2979 19.75H74.3291L75.8916 13.8984C76.0088 13.3984 76.3447 13.1328 76.8604 13.1328C77.3682 13.1328 77.6963 13.3984 77.8135 13.8984L79.3838 19.75H79.4229L80.8994 13.8359C81.0088 13.3594 81.251 13.1328 81.6729 13.1328C82.165 13.1328 82.4854 13.4219 82.4854 13.8594C82.4854 14 82.4619 14.1406 82.4072 14.3359L80.5322 20.7969C80.3682 21.375 80.0244 21.6484 79.4697 21.6484C78.8838 21.6484 78.5557 21.3984 78.3994 20.7969L76.8604 15.3438H76.8213L75.2979 20.7969C75.1416 21.375 74.79 21.6484 74.2197 21.6484Z" fill="#110C22"/>
<path d="M66.0791 21.6875C63.8916 21.6875 62.3916 20.7422 61.9541 19.4297C61.8994 19.2578 61.8604 19.0703 61.8604 18.8828C61.8604 18.375 62.1729 18.0469 62.6494 18.0469C63.0479 18.0469 63.3057 18.2266 63.4775 18.6484C63.8291 19.7031 64.8525 20.1953 66.1572 20.1953C67.5869 20.1953 68.6104 19.4609 68.6104 18.4531C68.6104 17.5781 68.0166 17.0312 66.5088 16.7031L65.2744 16.4453C63.0244 15.9688 62.001 14.9219 62.001 13.2969C62.001 11.3672 63.6963 10.0391 66.0947 10.0391C68.04 10.0391 69.5713 10.9531 70.0088 12.4609C70.0479 12.5703 70.0713 12.7031 70.0713 12.8672C70.0713 13.3203 69.751 13.6172 69.2979 13.6172C68.876 13.6172 68.6182 13.4219 68.4385 13.0156C68.0557 11.9766 67.1963 11.5312 66.0713 11.5312C64.751 11.5312 63.7744 12.1719 63.7744 13.2031C63.7744 14.0234 64.3604 14.5703 65.8213 14.8828L67.0479 15.1406C69.415 15.6406 70.3838 16.5859 70.3838 18.2266C70.3838 20.3516 68.7119 21.6875 66.0791 21.6875Z" fill="#110C22"/>
<defs>
<linearGradient id="paint0_linear_43_26" x1="14.5967" y1="26.2459" x2="14.5967" y2="5.75471" gradientUnits="userSpaceOnUse">
<stop stop-color="#EC4280"/>
<stop offset="0.15" stop-color="#E23D8A"/>
<stop offset="0.4" stop-color="#C930A6"/>
<stop offset="0.73" stop-color="#9F1BD4"/>
<stop offset="1" stop-color="#7908FF"/>
</linearGradient>
<linearGradient id="paint1_linear_43_26" x1="14.5967" y1="26.2459" x2="14.5967" y2="5.75468" gradientUnits="userSpaceOnUse">
<stop stop-color="#EC4280"/>
<stop offset="0.15" stop-color="#E23D8A"/>
<stop offset="0.4" stop-color="#C930A6"/>
<stop offset="0.73" stop-color="#9F1BD4"/>
<stop offset="1" stop-color="#7908FF"/>
</linearGradient>
<linearGradient id="paint2_linear_43_26" x1="14.5967" y1="26.2459" x2="14.5967" y2="5.75469" gradientUnits="userSpaceOnUse">
<stop stop-color="#EC4280"/>
<stop offset="0.15" stop-color="#E23D8A"/>
<stop offset="0.4" stop-color="#C930A6"/>
<stop offset="0.73" stop-color="#9F1BD4"/>
<stop offset="1" stop-color="#7908FF"/>
</linearGradient>
</defs>
</svg>
